<svg version="1.1" id="Layer_1" xmlns="http://www.w3.org/2000/svg" xmlns:xlink="http://www.w3.org/1999/xlink" x="0px" y="0px"
	 width="100%" viewBox="0 0 248 67" enable-background="new 0 0 248 67" xml:space="preserve">
<path fill="#070909" opacity="1.000000" stroke="none" 
	d="

	C173.312363,68.000000 166.624710,68.000000 159.393280,67.655960 
	C168.354996,57.844513 177.842407,48.358810 187.377243,38.921021 
	C190.173370,36.153366 191.152664,33.732357 187.478561,30.703892 
	C178.646652,23.423981 170.089859,15.809255 161.220657,8.576575 
	C159.466156,7.145795 156.833115,6.183499 154.565170,6.100569 
	C146.422485,5.802823 138.258484,5.832272 130.112244,6.070518 
	C128.107346,6.129154 126.139259,7.446794 124.154251,8.185642 
	C125.251114,10.075199 125.959671,12.401558 127.510620,13.780300 
	C135.077393,20.506899 142.815033,27.045687 150.609650,33.509308 
	C153.470337,35.881508 153.708633,37.631134 150.680923,40.154095 
	C142.783417,46.734962 135.291306,53.816662 127.217445,60.164303 
	C124.089699,62.623329 123.631424,64.786789 125.000000,68.000000 
	C118.978844,68.000000 112.957695,68.000000 106.318390,67.669250 
	C115.205879,57.787186 124.667198,48.191078 134.244919,38.712605 
	C137.017349,35.968903 137.652588,33.614944 134.352615,30.849287 
	C125.958054,23.813898 117.584816,16.750914 109.314690,9.570382 
	C106.415176,7.052885 103.377289,5.829174 99.448837,5.956965 
	C91.970673,6.200229 84.475037,5.873281 76.992867,6.048412 
	C75.038033,6.094168 73.106056,7.116704 71.163582,7.690633 
	C72.054787,9.640144 72.456932,12.134082 73.919304,13.447755 
	C81.453583,20.215874 89.104485,26.877481 97.042801,33.161785 
	C100.527481,35.920410 100.532204,37.753384 97.326225,40.469231 
	C89.489410,47.107952 81.948204,54.110405 73.905365,60.483555 
	C70.878410,62.882122 70.381485,64.916588 72.000000,68.000000 
	C65.978851,68.000000 59.957695,68.000000 53.062164,67.799431 
	C53.017113,66.433235 53.704487,65.126945 54.698135,64.124138 
	C62.898148,55.848568 71.175415,47.649605 79.386398,39.384834 
	C83.886963,34.854797 83.936478,34.480885 79.313141,30.399000 
	C71.355965,23.373699 63.175995,16.598288 55.296864,9.488236 
	C52.102509,6.605678 48.782677,5.523196 44.515747,5.824840 
	C38.716438,6.234813 32.852226,6.376001 27.057779,5.994914 
	C22.621290,5.703136 19.433115,7.020696 16.831120,11.094094 
	C25.562317,18.560926 34.280159,26.218180 43.246185,33.572884 
	C46.322803,36.096588 46.185802,37.912411 43.371899,40.247272 
	C35.606224,46.690918 27.934969,53.249771 20.105270,59.614079 
	C17.297884,61.896038 15.851105,64.393074 17.000000,68.000000 
	C11.672071,68.000000 6.344142,68.000000 1.012160,68.000000 
	C1.008107,45.694706 1.008107,23.389406 1.008107,1.042054 
	C83.554840,1.042054 166.109711,1.042054 248.832291,1.042054 
	C248.832291,23.332420 248.832291,45.666039 248.832291,68.000000 
	C237.914978,68.000000 226.926147,68.000000 215.289276,67.677765 
	C224.122482,57.802654 233.533539,48.178471 243.127228,38.739922 
	C246.042572,35.871742 246.271210,33.721439 243.023178,31.004959 
	C234.006165,23.463573 225.207718,15.658218 216.101746,8.228187 
	C214.382111,6.825055 211.662445,6.120756 209.371307,6.041122 
	C201.734863,5.775700 194.077866,5.777925 186.441086,6.038842 
	C184.094177,6.119027 181.786835,7.358232 179.461380,8.066710 
	C180.778961,10.166921 181.709045,12.697799 183.481445,14.292499 
	C190.996048,21.053707 198.719955,27.585457 206.457672,34.093700 
	C208.954758,36.194023 209.213058,37.840523 206.552353,40.041813 
	C198.666367,46.566158 190.992905,53.350330 183.029678,59.776817 
	C180.173340,62.081944 178.567688,64.351501 180.000000,68.000000 
z"/>
<path fill="#F6F9F8" opacity="1.000000" stroke="none" 
	d="
M180.468658,68.000000 
	C178.567688,64.351501 180.173340,62.081944 183.029678,59.776817 
	C190.992905,53.350330 198.666367,46.566158 206.552353,40.041813 
	C209.213058,37.840523 208.954758,36.194023 206.457672,34.093700 
	C198.719955,27.585457 190.996048,21.053707 183.481445,14.292499 
	C181.709045,12.697799 180.778961,10.166921 179.461380,8.066710 
	C181.786835,7.358232 184.094177,6.119027 186.441086,6.038842 
	C194.077866,5.777925 201.734863,5.775700 209.371307,6.041122 
	C211.662445,6.120756 214.382111,6.825055 216.101746,8.228187 
	C225.207718,15.658218 234.006165,23.463573 243.023178,31.004959 
	C246.271210,33.721439 246.042572,35.871742 243.127228,38.739922 
	C233.533539,48.178471 224.122482,57.802654 214.820618,67.677765 
	C203.645767,68.000000 192.291550,68.000000 180.468658,68.000000 
z"/>
<path fill="#F8FAFA" opacity="1.000000" stroke="none" 
	d="
M17.468658,68.000000 
	C15.851105,64.393074 17.297884,61.896038 20.105270,59.614079 
	C27.934969,53.249771 35.606224,46.690918 43.371899,40.247272 
	C46.185802,37.912411 46.322803,36.096588 43.246185,33.572884 
	C34.280159,26.218180 25.562317,18.560926 16.831120,11.094094 
	C19.433115,7.020696 22.621290,5.703136 27.057779,5.994914 
	C32.852226,6.376001 38.716438,6.234813 44.515747,5.824840 
	C48.782677,5.523196 52.102509,6.605678 55.296864,9.488236 
	C63.175995,16.598288 71.355965,23.373699 79.313141,30.399000 
	C83.936478,34.480885 83.886963,34.854797 79.386398,39.384834 
	C71.175415,47.649605 62.898148,55.848568 54.698135,64.124138 
	C53.704487,65.126945 53.017113,66.433235 52.593895,67.799431 
	C41.312439,68.000000 29.624876,68.000000 17.468658,68.000000 
z"/>
<path fill="#F9FAFA" opacity="1.000000" stroke="none" 
	d="
M125.468658,68.000000 
	C123.631424,64.786789 124.089699,62.623329 127.217445,60.164303 
	C135.291306,53.816662 142.783417,46.734962 150.680923,40.154095 
	C153.708633,37.631134 153.470337,35.881508 150.609650,33.509308 
	C142.815033,27.045687 135.077393,20.506899 127.510620,13.780300 
	C125.959671,12.401558 125.251114,10.075199 124.154251,8.185642 
	C126.139259,7.446794 128.107346,6.129154 130.112244,6.070518 
	C138.258484,5.832272 146.422485,5.802823 154.565170,6.100569 
	C156.833115,6.183499 159.466156,7.145795 161.220657,8.576575 
	C170.089859,15.809255 178.646652,23.423981 187.478561,30.703892 
	C191.152664,33.732357 190.173370,36.153366 187.377243,38.921021 
	C177.842407,48.358810 168.354996,57.844513 158.924744,67.655960 
	C147.979111,68.000000 136.958206,68.000000 125.468658,68.000000 
z"/>
<path fill="#F9FBFA" opacity="1.000000" stroke="none" 
	d="
M72.468658,68.000000 
	C70.381485,64.916588 70.878410,62.882122 73.905365,60.483555 
	C81.948204,54.110405 89.489410,47.107952 97.326225,40.469231 
	C100.532204,37.753384 100.527481,35.920410 97.042801,33.161785 
	C89.104485,26.877481 81.453583,20.215874 73.919304,13.447755 
	C72.456932,12.134082 72.054787,9.640144 71.163582,7.690633 
	C73.106056,7.116704 75.038033,6.094168 76.992867,6.048412 
	C84.475037,5.873281 91.970673,6.200229 99.448837,5.956965 
	C103.377289,5.829174 106.415176,7.052885 109.314690,9.570382 
	C117.584816,16.750914 125.958054,23.813898 134.352615,30.849287 
	C137.652588,33.614944 137.017349,35.968903 134.244919,38.712605 
	C124.667198,48.191078 115.205879,57.787186 105.850113,67.669250 
	C94.979103,68.000000 83.958214,68.000000 72.468658,68.000000 
z"/>
</svg>